<svg version="1.1" xmlns="http://www.w3.org/2000/svg" xmlns:xlink="http://www.w3.org/1999/xlink" width="86.1625" height="109.51615" viewBox="0,0,86.1625,109.51615"><g transform="translate(-201.89688,-145.627)"><g data-paper-data="{&quot;isPaintingLayer&quot;:true}" fill-rule="nonzero" stroke-linejoin="miter" stroke-miterlimit="10" stroke-dasharray="" stroke-dashoffset="0" style="mix-blend-mode: normal"><path d="M213.4005,210.87336c0,-5.68125 0,-16.43813 0,-19.16424c0,-1.23575 1.00227,-2.46398 2.73778,-2.46398c10.08037,0 44.89828,0 51.74348,0c2.27514,0 4.3804,1.07153 4.3804,2.73775c0,4.79596 0,14.51865 0,17.79538c0,2.10203 -1.83086,4.60399 -4.65798,4.53394c-6.50845,-0.16119 -18.29707,-0.4273 -25.18349,-0.4273c-7.73391,0 -21.4807,0.34516 -26.817,0.48738c-1.38477,0.03691 -2.20317,-1.35953 -2.20317,-3.49893z" fill="#837acc" stroke="#837acc" stroke-width="0" stroke-linecap="butt"/><path d="M217.78091,184.18029c0,-13.83498 11.21547,-25.05041 25.05045,-25.05041c13.83498,0 25.05041,11.21547 25.05041,25.05041c0,13.83498 -11.21543,25.05041 -25.05041,25.05041c-13.83498,0 -25.05045,-11.21543 -25.05045,-25.05041z" fill="#837acc" stroke="none" stroke-width="0" stroke-linecap="butt"/><path d="M224.35153,183.63277c0,-10.20615 8.27368,-18.47983 18.47983,-18.47983c10.20615,0 18.47983,8.27371 18.47983,18.47983c0,10.20615 -8.27368,18.47979 -18.47983,18.47979c-10.20615,0 -18.47983,-8.27368 -18.47983,-18.47979z" fill="#342a8c" stroke="#000000" stroke-width="0" stroke-linecap="butt"/><path d="M230.85991,180.14832c1.38046,-4.45746 3.83135,-6.71381 7.45413,-8.69856" fill="none" stroke="#837acc" stroke-width="3" stroke-linecap="round"/><path d="M258.1109,188.05282c0,2.13893 -3.33005,1.6643 -5.11286,2.05412c-0.66405,1.59044 -0.2854,5.22583 -2.16709,5.22583c-2.01027,0 -1.86994,-2.79423 -2.24521,-4.94907c-1.9455,-0.3753 -5.0347,-0.3206 -5.0347,-2.33087c0,-2.01027 3.56506,-1.89852 5.51052,-1.8551c0.16596,-2.67824 -0.24088,-5.42485 1.76939,-5.42485c2.09473,0 1.81306,3.42554 2.19915,5.57444c1.63984,0.35989 5.08079,-0.22038 5.08079,1.70551z" fill="#837acc" stroke="none" stroke-width="0" stroke-linecap="butt"/><path d="M268.1208,152.90694c0,2.13893 -3.33005,1.6643 -5.11286,2.05412c-0.66405,1.59044 -0.2854,5.22583 -2.16709,5.22583c-2.01027,0 -1.86994,-2.79423 -2.24521,-4.94907c-1.9455,-0.3753 -5.0347,-0.3206 -5.0347,-2.33087c0,-2.01027 3.56506,-1.89852 5.51052,-1.8551c0.16596,-2.67824 -0.24088,-5.42485 1.76939,-5.42485c2.09473,0 1.81306,3.42554 2.19915,5.57444c1.63984,0.35989 5.08079,-0.22038 5.08079,1.70551z" fill="#837acc" stroke="none" stroke-width="0" stroke-linecap="butt"/><path d="M222.2977,165.80859c0,2.13893 -3.33005,1.6643 -5.11286,2.05412c-0.66405,1.59044 -0.2854,5.22583 -2.16709,5.22583c-2.01027,0 -1.86994,-2.79423 -2.24521,-4.94907c-1.9455,-0.3753 -5.0347,-0.3206 -5.0347,-2.33087c0,-2.01027 3.56506,-1.89852 5.51052,-1.8551c0.16596,-2.67824 -0.24088,-5.42485 1.76939,-5.42485c2.09473,0 1.81306,3.42554 2.19915,5.57444c1.63984,0.35989 5.08079,-0.22038 5.08079,1.70551z" fill="#837acc" stroke="none" stroke-width="0" stroke-linecap="butt"/><text transform="translate(202.25,246.31503) scale(0.70625,0.70625)" font-size="40" xml:space="preserve" fill="#837acc" fill-rule="nonzero" stroke="#837acc" stroke-width="1" stroke-linecap="butt" stroke-linejoin="miter" stroke-miterlimit="10" stroke-dasharray="" stroke-dashoffset="0" font-family="Sans Serif" font-weight="normal" text-anchor="start" style="mix-blend-mode: normal"><tspan x="0" dy="0">占い師</tspan></text></g></g></svg>