<svg version="1.1" xmlns="http://www.w3.org/2000/svg" xmlns:xlink="http://www.w3.org/1999/xlink" width="66.11697" height="111.32708" viewBox="0,0,66.11697,111.32708"><g transform="translate(-206.94152,-143.81607)"><g data-paper-data="{&quot;isPaintingLayer&quot;:true}" fill-rule="nonzero" stroke-linecap="butt" stroke-linejoin="miter" stroke-miterlimit="10" stroke-dasharray="" stroke-dashoffset="0" style="mix-blend-mode: normal"><path d="M206.95234,174.66141c0,-23.44662 -1.01409,-27.73157 16.59277,-22.66363c5.79909,1.66921 9.60474,-8.18171 16.62526,-8.18171c6.97686,0 12.11043,11.17938 17.73929,8.16698c18.36807,-9.83006 14.88559,0.37438 14.88559,23.86471c0,17.53564 -20.28652,40.33618 -33.21803,40.33618c-13.6671,0 -32.62488,-24.72252 -32.62488,-41.52257z" fill="#837acc" stroke="none" stroke-width="0"/><path d="M213.6729,177.5392c0,-18.81883 -0.81396,-22.258 13.31774,-18.19037c4.65449,1.33974 7.70899,-6.56682 13.34383,-6.56682c5.59978,0 9.72012,8.97286 14.23794,6.55504c14.74265,-7.88983 11.94753,0.30049 11.94753,19.15434c0,14.07451 -16.28242,32.37478 -26.66157,32.37478c-10.96954,0 -26.18547,-19.84288 -26.18547,-33.32697z" fill="#342a8c" stroke="none" stroke-width="0"/><path d="M221.18423,177.96146c0,-13.87929 -0.60031,-16.41578 9.82212,-13.41579c3.4328,0.98811 5.68555,-4.84319 9.84138,-4.84319c4.12995,0 7.16883,6.61767 10.50084,4.83447c10.87305,-5.81891 8.81156,0.22162 8.81156,14.12679c0,10.38026 -12.00868,23.87713 -19.66354,23.87713c-8.09028,0 -19.3124,-14.63456 -19.3124,-24.57941z" fill="#837acc" stroke="none" stroke-width="0"/><text transform="translate(213.58333,246.31503) scale(0.70625,0.70625)" font-size="40" xml:space="preserve" fill="#837acc" fill-rule="nonzero" stroke="#837acc" stroke-width="1" stroke-linecap="butt" stroke-linejoin="miter" stroke-miterlimit="10" stroke-dasharray="" stroke-dashoffset="0" font-family="Sans Serif" font-weight="normal" text-anchor="start" style="mix-blend-mode: normal"><tspan x="0" dy="0">騎士</tspan></text></g></g></svg>