<svg version="1.1" xmlns="http://www.w3.org/2000/svg" xmlns:xlink="http://www.w3.org/1999/xlink" width="57.9125" height="110.53618" viewBox="0,0,57.9125,110.53618"><g transform="translate(-212.56354,-144.60697)"><g data-paper-data="{&quot;isPaintingLayer&quot;:true}" fill-rule="nonzero" stroke-linejoin="miter" stroke-miterlimit="10" stroke-dasharray="" stroke-dashoffset="0" style="mix-blend-mode: normal"><path d="M237.40639,144.60697c23.04148,0 36.18393,19.86516 17.59766,50.81569c20.56361,11.56995 5.44382,19.97037 -17.59766,19.97037c-7.81908,0 -34.33982,-8.00516 -15.45668,-19.41392c-14.98419,-34.00615 0.35285,-51.37213 15.45668,-51.37213z" fill="#837acc" stroke="none" stroke-width="0" stroke-linecap="butt"/><path d="M226.53144,169.91595c0,-1.96562 1.59345,-3.55908 3.55908,-3.55908c1.96562,0 3.55908,1.59345 3.55908,3.55908c0,1.96562 -1.59345,3.55908 -3.55908,3.55908c-1.96562,0 -3.55908,-1.59345 -3.55908,-3.55908z" fill="#342a8c" stroke="none" stroke-width="0" stroke-linecap="butt"/><path d="M244.32682,169.91595c0,-1.96562 1.59345,-3.55908 3.55908,-3.55908c1.96562,0 3.55908,1.59345 3.55908,3.55908c0,1.96562 -1.59345,3.55908 -3.55908,3.55908c-1.96562,0 -3.55908,-1.59345 -3.55908,-3.55908z" fill="#342a8c" stroke="none" stroke-width="0" stroke-linecap="butt"/><path d="M250.65407,177.72046c-5.12218,7.19791 -18.01145,5.75241 -22.14536,0" fill="none" stroke="#342a8c" stroke-width="3" stroke-linecap="round"/><text transform="translate(212.91667,246.31503) scale(0.70625,0.70625)" font-size="40" xml:space="preserve" fill="#837acc" fill-rule="nonzero" stroke="#837acc" stroke-width="1" stroke-linecap="butt" stroke-linejoin="miter" stroke-miterlimit="10" stroke-dasharray="" stroke-dashoffset="0" font-family="Sans Serif" font-weight="normal" text-anchor="start" style="mix-blend-mode: normal"><tspan x="0" dy="0">市民</tspan></text></g></g></svg>