<svg version="1.1" xmlns="http://www.w3.org/2000/svg" xmlns:xlink="http://www.w3.org/1999/xlink" width="59.72303" height="111.28249" viewBox="0,0,59.72303,111.28249"><g transform="translate(-210.13848,-143.86066)"><g data-paper-data="{&quot;isPaintingLayer&quot;:true}" fill-rule="nonzero" stroke-linecap="butt" stroke-linejoin="miter" stroke-miterlimit="10" stroke-dasharray="" stroke-dashoffset="0" style="mix-blend-mode: normal"><path d="M217.59976,168.43773c0,-11.526 -0.75339,-22.94625 3.55893,-22.79567c5.4634,0.1908 12.65572,14.89897 19.01899,14.89897c6.37487,0 12.80716,-16.48945 18.12915,-16.67954c3.25239,-0.1162 3.33653,11.93515 3.33653,24.57624c0.07118,0.05819 0.14735,0.11065 0.21194,0.17553c7.68429,7.71636 9.35001,17.56653 7.05234,26.28104c-0.44175,1.67544 -3.25442,-0.91749 -3.97456,0.65078c0.31715,3.86363 -0.27611,5.77553 -7.80139,4.92384c-0.50354,0.72591 -0.01167,3.19854 -1.15026,3.7344c-0.82834,0.38983 -3.35731,-1.18781 -3.66859,-0.60558c-1.38946,5.59771 -1.44057,11.64483 -5.70445,12.17478c-2.01821,0.25084 -4.09091,-0.51073 -6.20827,-0.51073c-2.48566,0 -4.93074,1.15791 -7.31476,0.81357c-4.37247,-0.63156 -2.64172,-8.10231 -4.87625,-12.3448c-5.88643,1.22948 -6.16023,-0.27561 -7.19147,-2.0323c-0.80464,-1.37064 -3.76038,0.31124 -4.42429,-1.14609c-0.65455,-1.43687 -0.60052,-3.96976 -1.18727,-5.32352c-0.87304,-2.01429 -4.41482,0.52514 -4.81223,-1.68401c-1.43758,-7.99162 0.43075,-16.99512 7.00597,-25.10697z" fill="#837acc" stroke="none" stroke-width="0"/><path d="M234.95025,205.69681c0,-2.94845 10.67723,-2.94845 10.67723,0c0,2.94845 -2.3902,5.33861 -5.33861,5.33861c-2.94841,0 -5.33861,-2.39017 -5.33861,-5.33861z" fill="#342a8c" stroke="none" stroke-width="0"/><path d="M225.38524,186.67799c0,-2.76416 2.24079,-1.89076 5.00495,-1.89076c2.76416,0 5.00495,2.68568 5.00495,5.44984c0,2.76416 -2.24079,1.89076 -5.00495,1.89076c-2.76416,0 -5.00495,-2.68568 -5.00495,-5.44984z" fill="#342a8c" stroke="none" stroke-width="0"/><path d="M249.07534,191.68294c-2.76416,0 -5.00495,0.8734 -5.00495,-1.89076c0,-2.76416 2.24079,-5.44984 5.00495,-5.44984c2.76416,0 5.00495,-0.8734 5.00495,1.89076c0,2.76416 -2.24079,5.44984 -5.00495,5.44984z" data-paper-data="{&quot;index&quot;:null}" fill="#342a8c" stroke="none" stroke-width="0"/><path d="M221.72074,162.41161c-1.77694,-3.08793 -0.0562,-9.46344 -0.0562,-9.46344c0,0 6.37683,1.71579 8.15377,4.80372c0.94778,1.64707 -7.26845,6.10058 -8.09757,4.65968z" fill="#342a8c" stroke="none" stroke-width="0"/><path d="M249.29155,158.92724c1.24201,-3.33916 7.24749,-6.08552 7.24749,-6.08552c0,0 2.75099,6.00334 1.50894,9.34254c-0.57956,1.55813 -9.41892,-1.47595 -8.75643,-3.25702z" data-paper-data="{&quot;index&quot;:null}" fill="#342a8c" stroke="none" stroke-width="0"/><text transform="translate(211.75,246.31503) scale(0.70625,0.70625)" font-size="40" xml:space="preserve" fill="#837acc" fill-rule="nonzero" stroke="#837acc" stroke-width="1" stroke-linecap="butt" stroke-linejoin="miter" stroke-miterlimit="10" stroke-dasharray="" stroke-dashoffset="0" font-family="Sans Serif" font-weight="normal" text-anchor="start" style="mix-blend-mode: normal"><tspan x="0" dy="0">人狼</tspan></text></g></g></svg>